<?xml version="1.0" standalone="no"?>
<!DOCTYPE svg PUBLIC "-//W3C//DTD SVG 20010904//EN"
 "http://www.w3.org/TR/2001/REC-SVG-20010904/DTD/svg10.dtd">
<svg version="1.0" xmlns="http://www.w3.org/2000/svg"
 width="300.000000pt" height="221.000000pt" viewBox="0 0 300.000000 221.000000"
 preserveAspectRatio="xMidYMid meet">

<g transform="translate(0.000000,221.000000) scale(0.100000,-0.100000)"
fill="#000000" stroke="none">
<path d="M2354 2160 c-116 -76 -234 -224 -278 -348 -8 -23 -12 -42 -8 -41 4 0
25 24 47 52 41 53 124 111 170 120 42 7 22 -30 -56 -106 -38 -37 -69 -72 -69
-77 0 -5 12 -13 26 -16 57 -14 109 59 163 229 27 86 46 137 78 215 9 21 -10
14 -73 -28z"/>
<path d="M2065 1633 c-109 -187 -207 -297 -365 -407 -228 -160 -440 -246 -916
-371 -442 -115 -697 -270 -758 -459 -23 -68 -31 -139 -18 -161 9 -16 12 -13
31 24 75 147 221 313 346 394 132 85 239 127 570 227 149 45 311 95 360 112
385 133 638 316 754 545 30 60 56 153 49 172 -2 5 -25 -29 -53 -76z"/>
<path d="M1475 1544 c43 -64 46 -187 5 -244 -11 -16 -49 -51 -84 -79 -76 -59
-113 -105 -123 -151 l-6 -34 29 33 c16 17 69 53 119 79 102 54 139 97 154 175
15 83 -25 202 -82 242 -34 24 -38 18 -12 -21z"/>
<path d="M1430 1464 c0 -30 -10 -46 -58 -97 -55 -58 -92 -118 -92 -148 0 -7
12 -2 28 13 15 14 53 44 84 68 64 47 75 75 64 155 -9 54 -26 60 -26 9z"/>
<path d="M2540 1388 c0 -2 7 -28 15 -58 60 -223 -81 -428 -328 -480 -100 -20
-284 -14 -487 17 -153 23 -557 24 -659 0 -125 -28 -111 -37 61 -37 193 0 336
-18 549 -69 218 -52 312 -65 428 -58 220 14 373 107 455 277 29 62 31 71 31
185 0 112 -2 124 -28 173 -22 43 -38 63 -37 50z"/>
<path d="M2507 781 c-37 -63 -145 -132 -262 -167 -46 -14 -93 -19 -200 -18
-163 0 -211 9 -512 95 -291 83 -386 100 -569 101 -94 1 -158 -3 -170 -10 -16
-10 -13 -11 21 -12 126 -1 345 -53 670 -160 324 -107 412 -130 527 -137 117
-7 198 7 285 49 78 39 174 135 209 213 28 61 29 93 1 46z"/>
<path d="M627 721 c-11 -4 31 -13 105 -23 165 -23 269 -54 440 -134 435 -202
532 -240 681 -264 174 -28 333 13 420 109 49 54 47 67 -5 37 -70 -40 -142 -56
-255 -56 -172 0 -265 24 -632 167 -134 52 -294 107 -355 123 -163 41 -349 61
-399 41z"/>
<path d="M420 619 c-48 -22 -202 -172 -257 -250 -25 -36 -9 -24 65 50 179 179
298 207 421 97 l24 -21 -24 44 c-13 24 -40 56 -59 72 -43 36 -103 38 -170 8z"/>
</g>
</svg>
